<?xml version="1.0" encoding="UTF-8"?>
<!DOCTYPE svg PUBLIC "-//W3C//DTD SVG 1.1//EN" "http://www.w3.org/Graphics/SVG/1.1/DTD/svg11.dtd">
<!-- Creator: CorelDRAW -->
<svg xmlns="http://www.w3.org/2000/svg" xml:space="preserve" width="2048px" height="2048px" style="shape-rendering:geometricPrecision; text-rendering:geometricPrecision; image-rendering:optimizeQuality; fill-rule:evenodd; clip-rule:evenodd"
viewBox="0 0 2048 2048"
 xmlns:xlink="http://www.w3.org/1999/xlink">
 <defs>
  <style type="text/css">
   <![CDATA[
    .fil1 {fill:none}
    .fil0 {fill:#424242}
    .fil2 {fill:white;fill-rule:nonzero}
   ]]>
  </style>
 </defs>
 <rect class="fil0" width="2048" height="2048"/>
 <g id="Layer_x0020_1">
  <metadata id="CorelCorpID_0Corel-Layer"/>
  <rect class="fil1" width="2048" height="2048"/>
  <rect class="fil1" x="255.999" y="255.999" width="1536" height="1536"/>
  <rect class="fil1" x="255.999" y="256.001" width="1536" height="1536"/>
  <g id="_253561480">
   <rect id="_253561648" class="fil1" x="255.999" y="256.001" width="1536" height="1536"/>
   <path id="_253561552" class="fil2" d="M1702.67 956.147c-25.9819,-163.789 -111.834,-308.319 -234.104,-411.672 -121.051,-102.315 -277.895,-164.124 -447.747,-164.124 -169.321,0 -324.166,61.3961 -443.435,163.103 -121.258,103.396 -205.977,248.329 -232.045,412.693l-89.3327 -14.1827c29.5406,-186.229 125.382,-350.328 262.538,-467.281 135.346,-115.417 310.762,-185.088 502.275,-185.088 191.897,0 369.235,69.9449 506.246,185.749 138.295,116.894 235.449,280.708 264.939,466.621l-89.3339 14.1827zm-1308.73 -43.4055c0,-76.0253 62.0233,-137.825 138.039,-137.825 76.1457,0 137.987,61.8 137.987,137.825 0,76.1965 -61.8414,137.987 -137.987,137.987 -76.0158,0 -138.039,-61.7906 -138.039,-137.987zm625.094 393.39c124.336,0 225.631,-101.278 225.631,-225.606 0,-124.302 -101.158,-225.639 -225.631,-225.639 -124.336,0 -225.443,101.337 -225.443,225.639 0,124.328 101.107,225.606 225.443,225.606zm487.072 -255.403c76.1965,0 137.987,-61.7906 137.987,-137.816 0,-76.017 -61.7906,-137.997 -137.987,-137.997 -76.017,0 -137.816,61.9796 -137.816,137.997 0,76.0253 61.7989,137.816 137.816,137.816zm-744.207 162.597l1.91221 -2.21221 -0.523229 -2.98347c-11.7567,-77.2087 -52.0926,-139.18 -113.583,-174.508l-4.33937 -2.61614 -3.44646 3.62717c-29.0953,30.5103 -68.0599,47.3174 -109.939,47.3174 -41.7508,0 -80.7154,-16.8071 -109.81,-47.3174l-3.45591 -3.62717 -4.5189 2.43543c-61.2591,35.5087 -101.639,97.48 -113.567,174.689l-0.351969 2.98347 1.91221 2.21221c61.3028,73.4363 142.858,113.952 229.791,113.952 86.9245,0 168.617,-40.5154 229.919,-113.952zm975.558 -5.01615c-11.7992,-77.217 -52.1351,-139.179 -113.617,-174.688l-4.2874 -2.61614 -3.46418 3.62717c-29.1295,30.5103 -68.093,47.3174 -109.982,47.3174 -41.7166,0 -80.8607,-16.8071 -109.75,-47.3174l-3.5067 -3.62717 -4.48465 2.61614c-61.3016,35.5087 -101.639,97.4705 -113.42,174.688l-0.497244 2.80394 1.92047 2.21221c61.2508,73.6241 142.806,114.132 229.739,114.132 86.9245,0 168.497,-40.6961 229.799,-114.132l1.91221 -2.21221 -0.360236 -2.80394zm-525.856 69.5941l-7.14331 -4.12441 -5.67638 5.89016c-47.4709,49.8721 -111.345,77.2087 -179.568,77.2087 -68.393,0 -132.311,-27.3366 -179.747,-77.2087l-5.71063 -5.89016 -7.10788 4.12441c-100.439,58.0264 -166.388,159.313 -185.57,285.724l-0.891733 4.65591 3.09567 3.64488c100.274,120.357 233.769,186.477 375.932,186.477 141.992,0 275.495,-66.1205 375.718,-186.477l3.15591 -3.64488 -0.900001 -4.65591c-19.2343,-126.411 -85.1918,-227.698 -185.587,-285.724z"/>
  </g>
 </g>
</svg>
